<svg width="1372" height="1409" viewBox="0 0 1372 1409" fill="none" xmlns="http://www.w3.org/2000/svg">
<rect width="1372" height="1409" fill="white"/>
<path d="M527.888 339.449C528.26 339.3 528.631 339.15 529 339C530.385 338.947 531.717 338.913 533 338.898M527.888 339.449C522.092 345.39 514.2 359.744 529 369.636M527.888 339.449C524.517 340.798 521.01 342.109 517.5 343.594M529 369.636C514.272 369.141 499.396 367.705 490 366.5C491.192 364.305 492.486 362.314 493.864 360.5M529 369.636C540.04 370.006 550.997 369.847 559.5 368.664M555.5 341.405C567.632 345.149 568.55 351.821 575 352.5C584.5 353.5 582 362 581 363.5C580 365 573 362.5 569 366.5C566.426 367.442 563.195 368.149 559.5 368.664M555.5 341.405C559.833 345.712 566.7 357.194 559.5 368.664M555.5 341.405C550.398 339.83 543.313 338.773 533 338.898M493.864 360.5C487.076 359.667 473.1 356.1 471.5 348.5M493.864 360.5C496.821 356.611 500.165 353.535 503.724 351M503.724 351C497.649 351.466 485 349.808 483 339.449M503.724 351C508.101 347.882 512.802 345.582 517.5 343.594M517.5 343.594C513.483 342.23 505.103 338.6 503.724 335M533 338.898C526.833 338.765 514.5 336.9 514.5 330.5M541 351C539.333 353.333 537.7 358 544.5 358C547.5 355 548 355.5 547.5 352.5C547 349.5 542 349.21 541 351Z" stroke="black" stroke-width="4"/>
</svg>
