<svg width="1372" height="1409" viewBox="0 0 1372 1409" fill="none" xmlns="http://www.w3.org/2000/svg">
<rect width="1372" height="1409" fill="white"/>
<path d="M718 346C699.2 344 678.167 358.167 670 365.5C678 369.667 699.5 378.6 721.5 381M718 346C714.5 348.042 707.6 354.801 708 365.5C709 371.5 710 374 721.5 381M718 346C721.334 346.355 724.648 347.072 727.896 348.051M721.5 381C749 384 764 377.5 769.5 372.5C768.271 371.718 766.195 370.088 763.448 368M721.5 381C726.333 381.667 737.3 380.8 742.5 372C749 361 739.297 352.572 739.149 352.5M739.149 352.5C735.543 350.757 731.766 349.218 727.896 348.051M739.149 352.5C743.766 350.667 752.9 346.3 752.5 343.5M739.149 352.5C743.965 354.828 748.477 357.518 752.5 360.169M727.896 348.051C732.764 345.867 742.3 340.5 741.5 336.5M752.5 360.169C757.167 359.096 766.4 356.059 766 352.5M752.5 360.169C756.775 362.986 760.498 365.757 763.448 368M763.448 368C768.132 367.61 777.4 366.165 777 363.5M723 361.5C721.833 363.333 720.7 367.2 725.5 368C731.5 369 731.5 365 730 362.5C728.5 360 726.5 360.5 723 361.5Z" stroke="black" stroke-width="4"/>
</svg>
