<svg width="1372" height="1409" viewBox="0 0 1372 1409" fill="none" xmlns="http://www.w3.org/2000/svg">
<rect width="1372" height="1409" fill="white"/>
<path d="M19.5 1276.5C44.5 1155.5 95 943 202.5 922.5V911.5C204.5 909.333 211.2 905.2 222 906C232.8 906.8 260.167 889.667 272.5 881M272.5 881C286.5 830.333 315.3 726.9 318.5 718.5C322.5 708 336.5 673 336.5 664C336.5 655 359.5 547 366 528C372.5 509 396.5 387 398 379.5C399.5 372 446.5 220.5 456 206.5C465.5 192.5 494 101.5 560.5 74.5C600 65 662 42.5 727.5 58.5C743 63.5 852.5 87 824.5 143M272.5 881C256.833 938.833 220.9 1060.4 202.5 1084C190.667 1111.33 168.3 1181.7 173.5 1244.5M824.5 143C845.333 141.833 884.5 148 898.5 168C903.75 175.5 950.5 237.5 974 361.5C979 398.167 986.8 480.5 978 516.5C978 529.5 986 618.5 996 634.5C1000 650 1005.5 662 1004.5 677.5C1005.5 718.167 1008.6 803.1 1013 817.5M824.5 143L814 159M1013 817.5C1018.5 835.5 1065 844.5 1071 845.5C1077 846.5 1117 850 1131.5 867C1133.1 870.2 1135.83 874 1137 875.5C1163 881.167 1217.9 900.5 1229.5 932.5C1239.5 956 1282 1044 1288.5 1069.5C1293.7 1089.9 1328 1216 1344.5 1276.5M1013 817.5C1036 860.333 1084.5 953.5 1094.5 983.5C1094.5 1002.5 1113 1057 1110 1097.5C1107 1138 1118.5 1235.5 1122.5 1258.5C1125.7 1276.9 1132.17 1318.83 1135 1337.5L1145.5 1395M814 159C813 141.5 704 78.5 603.5 106C580.5 112.5 489.5 127.5 467.5 289C467.5 292.235 466.883 300.263 466.029 310C464.112 331.866 461 362.349 461 366.5C461 372.5 440.3 401.04 439 422C435 486.5 481 629 496.5 655.5C504.689 669.5 513 676.5 525.5 693.5M814 159C833 168 860.5 227.9 868.5 303.5C873.5 322 868 369 878.5 402C881 411 874 447 886 451.5C895.6 455.1 894.333 453.769 892.5 452.654M815 622C806.2 648 776.281 667.333 763.448 672L653 715.5C596.65 732.438 554.697 716.653 525.5 693.5M815 622C823 607.2 840.5 580 849.5 563.5C853.5 576.5 867 598.6 889 583C906 572 923 563 948.5 506C951.855 498.5 963.5 442 930.5 435C917.66 435 904.648 439.678 892.5 452.654M815 622C809.667 649 797.1 720.4 799.5 752C799.5 789 796.5 809.5 804.5 858.5L799.5 923C800.833 936 801.3 976.4 792.5 1034C781.5 1106 763 1192.5 763 1213.5C763 1234.5 782.5 1281.5 782.5 1306.5C782.5 1326.5 782.5 1381.17 782.5 1406M881 468C884.719 461.932 888.564 456.857 892.5 452.654M525.5 693.5C526.333 695.04 536 715.5 536 717.5C537 723.452 541 755 541 762.5C541 770 538 820 541 830C543.4 838 544 873 544 889.5L541 930.5C560.333 951 598.3 1003.9 595.5 1051.5C578.5 1096.5 587 1098 564 1137C564 1162.5 575 1257.5 574 1278C573 1298.5 569.5 1394 549.5 1404" stroke="black" stroke-width="4"/>
</svg>
