<svg width="1330" height="1356" viewBox="0 0 1330 1356" fill="none" xmlns="http://www.w3.org/2000/svg">
<path d="M1.95874 1225.58C26.9587 1104.58 77.4587 892.081 184.959 871.581M184.959 871.581V860.581C186.959 858.414 193.659 854.281 204.459 855.081C215.259 855.881 242.625 838.748 254.959 830.081M184.959 871.581V1033.08M254.959 830.081C268.959 779.414 297.759 675.981 300.959 667.581C304.959 657.081 318.959 622.081 318.959 613.081C318.959 604.081 341.959 496.081 348.459 477.081C354.959 458.081 378.959 336.081 380.459 328.581C381.959 321.081 428.959 169.581 438.459 155.581C447.959 141.581 476.459 50.5811 542.959 23.5811C582.459 14.0811 644.459 -8.41892 709.959 7.58108C725.459 12.5811 834.959 36.0811 806.959 92.0811M254.959 830.081C239.292 887.914 203.359 1009.48 184.959 1033.08M806.959 92.0811C827.792 90.9144 866.959 97.0811 880.959 117.081C886.209 124.581 932.959 186.581 956.459 310.581C961.459 347.248 969.259 429.581 960.459 465.581C960.459 478.581 968.459 567.581 978.459 583.581C982.459 599.081 987.959 611.081 986.959 626.581C987.959 667.248 991.059 752.181 995.459 766.581M806.959 92.0811L796.459 108.081M995.459 766.581C1000.96 784.581 1047.46 793.581 1053.46 794.581M995.459 766.581C1018.46 809.414 1066.96 902.581 1076.96 932.581C1076.96 951.581 1095.46 1006.08 1092.46 1046.58C1089.46 1087.08 1100.96 1184.58 1104.96 1207.58C1108.16 1225.98 1114.63 1267.91 1117.46 1286.58L1127.96 1344.08M1053.46 794.581C1059.46 795.581 1099.46 799.081 1113.96 816.081M1053.46 794.581C1065.7 810.414 1066.25 875.581 1066.25 906.581M1113.96 816.081C1115.56 819.281 1118.29 823.081 1119.46 824.581C1145.46 830.248 1200.36 849.581 1211.96 881.581C1221.96 905.081 1264.46 993.081 1270.96 1018.58C1276.16 1038.98 1310.46 1165.08 1326.96 1225.58C1306.16 1235.18 1262.29 1217.58 1242.96 1207.58C1224.46 1207.58 1214.46 1207.58 1202.46 1201.08C1171.46 1140.08 1190.96 1128.08 1190.46 1089.58C1189.96 1051.08 1237.46 1033.58 1233.46 1026.08C1229.46 1018.58 1208.46 990.081 1202.46 985.081C1196.46 980.081 1185.46 1000.58 1180.96 990.081C1176.46 979.581 1201.96 950.581 1198.46 958.581C1194.96 966.581 1167.96 980.581 1163.96 977.581C1159.96 974.581 1163.96 966.581 1153.46 958.581C1145.06 952.181 1137.63 948.248 1134.96 947.081C1133.63 944.914 1131.76 938.281 1134.96 929.081C1138.96 917.581 1172.46 900.081 1163.96 897.581C1157.16 895.581 1127.6 860.081 1113.68 842.581M1113.96 816.081C1113.86 824.009 1113.76 832.958 1113.68 842.581M796.459 108.081C795.459 90.5811 686.459 27.5811 585.959 55.0811C562.959 61.5811 471.959 76.5811 449.959 238.081C449.959 241.316 449.342 249.344 448.488 259.081M796.459 108.081C815.459 117.081 842.959 176.981 850.959 252.581C855.959 271.081 850.459 318.081 860.959 351.081C863.459 360.081 856.459 396.081 868.459 400.581C878.059 404.181 876.792 402.85 874.959 401.735M797.459 571.081C788.659 597.081 758.74 616.414 745.907 621.081L635.459 664.581C579.108 681.519 537.155 665.734 507.959 642.581M797.459 571.081C805.459 556.281 822.959 529.081 831.959 512.581C835.959 525.581 849.459 547.681 871.459 532.081C888.459 521.081 905.459 512.081 930.959 455.081C934.314 447.581 945.959 391.081 912.959 384.081C900.119 384.081 887.107 388.759 874.959 401.735M797.459 571.081C792.125 598.081 779.559 669.481 781.959 701.081C781.959 738.081 778.959 758.581 786.959 807.581M863.459 417.081C867.178 411.013 871.023 405.938 874.959 401.735M919.959 465.581C931.959 439.081 933.382 405.081 916.459 400.581C902.92 396.981 878.818 431.081 868.459 448.581C867.625 451.914 867.059 459.281 871.459 462.081C871.459 466.881 864.459 478.414 860.959 483.581C859.625 487.914 859.259 495.281 868.459 490.081C873.459 488.081 875.459 483.581 880.459 483.581C885.459 483.581 888.459 494.581 893.959 487.581C899.459 480.581 899.959 476.081 898.959 472.081M786.959 807.581C739.459 877.081 564.959 891.581 526.459 838.581M786.959 807.581L781.959 872.081M526.459 838.581C526.459 822.081 525.859 787.081 523.459 779.081C520.459 769.081 523.459 719.081 523.459 711.581C523.459 704.081 519.459 672.533 518.459 666.581C518.459 664.581 508.792 644.121 507.959 642.581M526.459 838.581L523.459 879.581M507.959 642.581C495.459 625.581 487.147 618.581 478.959 604.581C463.459 578.081 417.459 435.581 421.459 371.081C422.759 350.121 443.459 321.581 443.459 315.581C443.459 311.43 446.571 280.948 448.488 259.081M523.459 879.581C553.459 918.581 679.959 946.481 781.959 872.081M523.459 879.581C542.792 900.081 580.759 952.981 577.959 1000.58C560.959 1045.58 569.459 1047.08 546.459 1086.08C546.459 1111.58 557.459 1206.58 556.459 1227.08C555.459 1247.58 551.959 1343.08 531.959 1353.08M781.959 872.081C783.292 885.081 783.759 925.481 774.959 983.081C763.959 1055.08 745.459 1141.58 745.459 1162.58C745.459 1183.58 764.959 1230.58 764.959 1255.58C764.959 1275.58 764.959 1330.25 764.959 1355.08M184.959 1033.08C173.125 1060.41 150.759 1130.78 155.959 1193.58M510.346 288.53C510.719 288.381 511.09 288.231 511.459 288.081C512.844 288.028 514.176 287.994 515.459 287.979M510.346 288.53C504.55 294.471 496.659 308.825 511.459 318.717M510.346 288.53C506.976 289.879 503.468 291.19 499.959 292.675M511.459 318.717C496.731 318.223 481.855 316.786 472.459 315.581C473.651 313.386 474.945 311.395 476.323 309.581M511.459 318.717C522.499 319.087 533.455 318.928 541.959 317.745M537.959 290.486C550.09 294.23 551.009 300.902 557.459 301.581C566.959 302.581 564.459 311.081 563.459 312.581C562.459 314.081 555.459 311.581 551.459 315.581C548.885 316.523 545.653 317.23 541.959 317.745M537.959 290.486C542.292 294.793 549.159 306.275 541.959 317.745M537.959 290.486C532.857 288.911 525.772 287.854 515.459 287.979M448.488 259.081C450.312 256.914 454.559 252.581 456.959 252.581C465.43 246.081 478.459 238.081 490.959 238.081C500.959 238.081 526.459 247.748 537.959 252.581L563.459 259.081V233.081L551.459 223.081C533.959 220.248 498.159 214.781 494.959 215.581C490.959 216.581 460.459 220.081 449.959 245.081M700.459 295.081C681.659 293.081 660.625 307.248 652.459 314.581C660.459 318.748 681.959 327.681 703.959 330.081M700.459 295.081C696.959 297.123 690.059 303.882 690.459 314.581C691.459 320.581 692.459 323.081 703.959 330.081M700.459 295.081C703.793 295.436 707.107 296.153 710.355 297.132M703.959 330.081C731.459 333.081 746.459 326.581 751.959 321.581C750.73 320.799 748.653 319.169 745.907 317.081M703.959 330.081C708.792 330.748 719.759 329.881 724.959 321.081C731.459 310.081 721.756 301.653 721.607 301.581M721.607 301.581C718.002 299.838 714.225 298.299 710.355 297.132M721.607 301.581C726.224 299.748 735.359 295.381 734.959 292.581M721.607 301.581C726.424 303.909 730.936 306.6 734.959 309.25M574.459 318.717C570.459 338.581 555.459 361.581 551.459 371.081C549.959 375.581 529.959 389.581 529.959 400.081C529.959 406.581 523.459 415.081 553.459 422.581C558.459 420.081 547.459 414.081 547.459 412.581L541.959 403.081C541.792 400.414 547.859 399.881 551.459 403.081C555.959 407.081 563.459 423.581 579.959 423.081M692.459 494.081C696.959 498.414 702.759 508.981 689.959 516.581M700.459 470.081C708.459 475.414 722.059 492.181 712.459 516.581M535.959 571.081C549.459 567.581 580.059 564.781 594.459 581.581M529.959 498.581C535.792 497.414 549.459 495.781 557.459 498.581C565.459 501.381 572.125 503.414 574.459 504.081C578.959 502.248 589.259 498.581 594.459 498.581C600.959 498.581 620.959 505.081 642.459 507.581C659.659 509.581 673.426 506.748 678.16 505.081M678.16 505.081C675.377 504.277 672.119 503.179 668.459 502.081C658.459 499.081 616.959 483.581 604.459 477.581C594.459 472.781 586.625 475.581 583.959 477.581C579.959 480.914 570.259 485.581 563.459 477.581C556.659 469.581 544.959 470.581 539.959 472.081C530.088 475.914 515.069 482.381 509.959 485.581C504.849 488.781 496.459 490.081 492.959 488.581C494.559 500.181 516.959 527.581 545.959 543.081C553.459 547.09 599.959 546.081 609.459 543.081C619.471 539.919 690.459 502.081 687.959 505.081C686.374 506.983 682.98 506.473 678.16 505.081ZM678.16 505.081C671.934 503.842 628.459 516.581 620.459 516.581C612.459 516.581 590.459 516.581 577.459 519.081C567.059 521.081 552.125 515.581 545.959 512.581M626.459 389.081C628.459 393.581 636.959 395.081 637.959 400.081C638.959 405.081 640.459 412.581 633.959 421.081C628.759 427.881 613.959 424.081 606.959 423.081C609.125 423.414 613.759 423.481 614.959 421.081C616.459 418.081 616.459 418.581 612.959 415.581C609.459 412.581 607.959 412.581 604.459 412.581C600.959 412.581 598.459 409.581 596.459 412.581M1123.46 1286.58C1127.29 1277.91 1134.96 1259.58 1134.96 1255.58C1134.96 1250.58 1139.46 1199.08 1134.96 1184.58C1130.46 1170.08 1123.46 1042.08 1117.46 1026.08C1113.25 1014.85 1113.09 911.446 1113.68 842.581M710.355 297.132C715.223 294.948 724.759 289.581 723.959 285.581M734.959 309.25C739.625 308.177 748.859 305.14 748.459 301.581M734.959 309.25C739.234 312.067 742.957 314.838 745.907 317.081M745.907 317.081C750.591 316.691 759.859 315.246 759.459 312.581M476.323 309.581C469.535 308.748 455.559 305.181 453.959 297.581M476.323 309.581C479.279 305.692 482.624 302.616 486.182 300.081M486.182 300.081C480.108 300.547 467.459 298.889 465.459 288.53M486.182 300.081C490.56 296.963 495.261 294.663 499.959 292.675M499.959 292.675C495.941 291.311 487.561 287.681 486.182 284.081M515.459 287.979C509.292 287.846 496.959 285.981 496.959 279.581M563.459 463.081C568.125 468.414 579.159 475.481 585.959 461.081C585.959 445.081 582.459 438.081 579.959 435.581M637.959 297.132C633.125 297.724 626.359 302.675 637.959 317.745M661.959 339.081C676.959 346.748 711.459 361.881 729.459 361.081M551.459 328.581C541.292 337.248 529.959 345.581 518.459 344.581M523.459 300.081C521.792 302.414 520.159 307.081 526.959 307.081C529.959 304.081 530.459 304.581 529.959 301.581C529.459 298.581 524.459 298.291 523.459 300.081ZM788.959 264.581C780.959 255.914 761.259 237.481 746.459 233.081C727.959 227.581 675.459 228.081 661.959 233.081C648.459 238.081 640.959 236.081 640.459 247.581C640.459 250.381 640.459 256.414 640.459 259.081C647.459 259.081 663.959 259.081 673.959 259.081C686.459 259.081 708.959 247.581 714.959 247.581C720.959 247.581 742.459 246.081 751.959 252.581C757.959 255.581 785.459 265.258 788.959 264.581ZM705.459 310.581C704.292 312.414 703.159 316.281 707.959 317.081C713.959 318.081 713.959 314.081 712.459 311.581C710.959 309.081 708.959 309.581 705.459 310.581Z" stroke="black" stroke-width="6"/>
</svg>
