<svg width="1931" height="3961" viewBox="0 0 1931 3961" fill="none" xmlns="http://www.w3.org/2000/svg">
<path d="M1424.43 2368.58C1429.76 2448.24 1473.33 2633.08 1604.93 2735.08C1769.43 2862.58 1907.93 3149.08 1918.43 3340.58C1928.93 3532.08 1933.43 3851.85 1918.43 3861.08M1424.43 2368.58C1444.43 2370.74 1488.33 2353.18 1503.93 2265.58C1523.43 2156.08 1541.43 1916.08 1464.93 1781.58M1424.43 2368.58C1437.93 2350.58 1468.43 2310.98 1482.43 2296.58C1538.43 2176.98 1494.09 1918.41 1464.93 1804.08C1453.93 1815.24 1428.03 1837.58 1412.43 1837.58C1349.63 1853.98 1335.93 1804.08 1336.93 1777.08C1329.26 1770.74 1313.93 1754.68 1313.93 1741.08C1397.43 1663.58 1464.93 1752.58 1482.43 1781.58M1918.43 3861.08C1641.93 4031.08 605.926 4020.58 85.4264 3484.08C33.9264 3339.08 25.3264 3025.68 402.926 2932.08C874.926 2815.08 850.427 2863.08 961.927 2799.08M1918.43 3861.08H1901.43C1851.59 3882.41 1744.13 3922.48 1712.93 3912.08C1702.93 3889.58 1822.93 3454.08 1550.93 3095.08C1505.93 3022.08 1421.43 2858.58 1401.43 2818.58M961.927 2799.08C1073.43 2735.08 988.927 2404.58 904.927 2386.58M961.927 2799.08C1018.09 2792.91 1142.13 2741.18 1188.93 2583.58M904.927 2386.58C880.927 2386.58 730.26 2426.24 657.927 2446.08C624.427 2454.41 534.893 2465.75 519.427 2411.08C497.927 2335.08 404.427 2088.58 212.927 1702.58C188.427 1542.58 239.427 1558.58 229.427 1542.58C219.427 1526.58 229.427 1498.58 229.427 1491.58C281.427 1472.58 399.827 1452.28 457.427 1523.08M904.927 2386.58C1084.43 2296.58 1379.93 2236.58 1367.93 2008.58C1315.59 1823.74 1161.03 1484.98 961.427 1608.58C908.427 1634.08 842.427 1933.08 1071.43 1889.58C1101.83 1883.8 1202.93 1831.58 1204.93 1687.08M457.427 1523.08C464.427 1533.58 287.927 1593.58 247.427 1542.58C242.927 1527.58 236.927 1470.08 247.427 1449.08C247.427 1440.68 199.427 1399.91 175.427 1380.58H133.927V1361.58C198.093 1339.58 378.427 1345.58 424.427 1393.58M457.427 1523.08C445.427 1511.08 413.027 1486.58 379.427 1484.58C382.427 1495.58 400.427 1514.58 389.927 1545.58C384.927 1545.58 289.427 1570.58 268.427 1542.58C268.427 1535.08 252.927 1502.08 290.427 1482.08C297.427 1482.08 340.427 1477.08 349.927 1482.08M424.427 1393.58C443.927 1413.08 392.427 1306.08 175.427 1299.58C159.427 1299.58 212.927 1098.58 247.427 1083.08C281.927 1067.58 320.427 1020.58 305.927 968.577M424.427 1393.58C463.76 1418.91 528.027 1513.08 470.427 1687.08C398.427 1904.58 405.427 1869.08 414.927 1902.58C424.427 1936.08 504.427 1925.58 529.427 1902.58C543.927 1902.58 540.427 2029.58 529.427 2051.58C518.427 2073.58 438.927 2002.08 441.927 2083.58C447.427 2095.08 463.127 2120.48 481.927 2130.08C481.927 2145.08 431.427 2198.58 519.427 2208.58C538.927 2190.58 545.927 2166.58 597.427 2208.58M305.927 968.577C305.927 959.577 356.427 975.577 424.427 968.577M305.927 968.577C300.427 959.41 276.527 940.777 224.927 939.577M424.427 968.577C396.927 996.577 385.927 1069.08 379.427 1093.08C441.26 1103.58 562.827 1093.38 554.427 968.577M424.427 968.577L518.427 951.577C523.76 938.577 530.527 915.677 514.927 928.077M554.427 968.577C554.427 962.177 634.76 954.577 674.927 951.577C651.427 957.577 598.827 995.577 576.427 1099.58C580.927 1108.08 770.427 1107.08 711.927 951.577M554.427 968.577C530.402 1005.58 473.168 1076.18 436.427 1062.58M711.927 951.577C711.927 943.977 730.927 943.744 740.427 944.577C739.593 936.244 735.927 918.877 727.927 916.077C717.927 912.577 776.927 881.577 721.427 801.077C711.927 788.077 749.927 683.577 655.927 620.577C646.927 610.577 649.927 598.077 655.927 585.577C661.927 573.077 666.731 571.97 690.427 513.577C704.427 479.077 734.427 419.577 646.427 380.077V363.077C667.593 340.41 690.627 256.877 613.427 104.077C601.427 104.077 463.927 118.077 518.427 317.077C501.593 316.41 468.127 319.877 468.927 339.077C459.427 346.077 420.927 323.077 415.927 380.077C415.927 390.077 385.927 355.577 379.427 412.077C379.427 428.077 310.927 469.577 379.427 507.577C387.927 513.577 381.427 620.577 478.927 620.577C488.427 620.577 516.927 640.077 554.427 620.577C568.927 614.577 507.118 694.577 613.427 743.077C623.427 758.077 518.427 745.577 518.427 781.077M711.927 951.577C701.427 982.91 670.027 1045.58 628.427 1045.58M518.427 781.077C518.427 816.577 553.427 789.577 564.927 828.077C576.427 866.577 576.427 928.577 702.427 916.077M518.427 781.077C460.427 655.077 291.427 575.577 314.427 446.077C317.76 356.577 353.327 156.877 468.927 74.077M702.427 916.077C717.627 907.277 593.427 917.077 529.427 923.077C515.427 856.744 459.227 739.477 346.427 801.077C329.627 808.277 312.427 815.077 305.927 817.577C318.76 818.41 347.927 825.777 361.927 848.577C379.427 877.077 380.927 923.077 398.427 923.077M702.427 916.077C698.427 877.077 671.827 797.277 597.427 790.077M398.427 923.077C415.927 923.077 495.427 943.577 514.927 928.077M398.427 923.077C379.76 927.744 332.927 932.877 294.927 916.077C247.427 895.077 134.426 792.577 108.427 712.577C82.4268 632.577 65.9269 612.077 145.427 549.077C161.427 531.477 172.093 492.744 175.427 475.577C199.427 521.41 237.227 627.377 196.427 684.577C179.627 692.977 143.093 706.744 126.927 712.577C150.963 690.577 194.315 635.977 175.427 593.577M514.927 928.077C491.427 887.744 431.427 809.177 379.427 817.577M597.427 2208.58C615.927 2197.08 652.427 2166.58 647.427 2130.08C647.427 2116.58 661.427 2130.08 679.427 2130.08C693.827 2130.08 688.093 2123.41 683.427 2120.08C660.427 2100.08 603.227 2072.08 558.427 2120.08M597.427 2208.58C581.26 2208.91 550.827 2220.78 558.427 2265.58C566.027 2290.38 542.26 2344.58 529.427 2368.58C557.26 2320.91 626.227 2257.78 679.427 2386.58M659.427 2091.08C665.76 2098.74 681.027 2114.68 691.427 2117.08C691.427 2108.08 698.927 2046.58 635.927 2019.58C629.427 2019.58 588.427 2009.58 541.427 2048.08C539.827 2050.88 536.427 2052.24 534.927 2052.58C541.427 2008.24 551.427 1915.58 534.927 1902.58C556.093 1919.91 600.027 1945.48 606.427 1909.08C606.427 1900.58 615.427 1893.58 616.427 1889.58C617.427 1885.58 611.427 1845.58 567.927 1829.08M468.927 74.077C584.527 -8.72298 695.093 64.9104 735.927 112.077C729.76 207.077 726.827 406.877 764.427 446.077M468.927 74.077C690.427 -99.9231 753.927 94.5772 774.427 104.077C794.927 113.577 829.927 112.077 854.927 133.077C904.527 227.077 901.26 380.91 893.427 446.077M764.427 446.077C775.927 475.077 799.927 629.077 792.927 671.077C785.927 713.077 770.927 744.577 774.427 781.077C777.927 817.577 816.927 821.077 829.927 801.077C842.927 781.077 842.927 573.577 841.427 562.077C839.927 550.577 849.927 779.077 854.927 790.077C859.927 801.077 874.927 823.577 893.427 790.077C911.927 756.577 874.927 561.077 869.927 549.077C864.927 537.077 904.927 656.077 908.427 684.577C911.927 713.077 899.927 779.077 908.427 790.077C945.226 818.477 951.093 750.244 949.427 712.577C950.627 687.377 908.427 549.077 893.427 446.077M764.427 446.077C806.427 473.277 867.927 457.41 893.427 446.077M1464.93 1781.58C1388.43 1647.08 1242.93 1384.58 1185.93 1361.58C1175.53 1361.58 1238.93 1440.58 1271.93 1480.08C1234.43 1486.91 1159.93 1481.38 1161.93 1404.58C1161.93 1389.58 1134.43 1296.08 1118.43 1291.08M1464.93 1781.58C1435.26 1790.08 1372.03 1801.98 1356.43 1781.58M1118.43 1291.08C1102.43 1286.08 1231.93 1304.58 1275.93 1375.08C1286.09 1393.74 1301.13 1440.88 1279.93 1480.08C1283.93 1489.28 1324.26 1550.24 1343.93 1579.58C1319.59 1573.74 1263.83 1567.28 1235.43 1588.08C1244.43 1598.08 1233.43 1656.58 1300.93 1671.08C1312.93 1671.08 1370.43 1671.58 1391.43 1634.08M1118.43 1291.08C961.427 1242.01 682.727 1252.88 567.927 1340.08L576.427 1404.58C674.093 1341.08 895.627 1235.68 1000.43 1322.08C1000.43 1329.68 1000.43 1421.58 1000.43 1466.58C973.927 1473.41 906.927 1412.08 846.427 1404.58C729.927 1401.58 682.927 1481.08 628.427 1511.58C622.26 1521.58 617.827 1541.58 649.427 1541.58C688.927 1541.58 700.927 1542.58 734.927 1546.58M1391.43 1634.08C1396.93 1567.08 1312.43 1502.08 1367.93 1418.58C1392.26 1424.58 1443.33 1454.08 1452.93 1524.08C1452.93 1534.08 1451.93 1576.08 1397.93 1592.08M1391.43 1634.08C1370.93 1640.41 1324.13 1644.18 1300.93 1608.58M1397.93 1592.08C1397.93 1600.08 1401.43 1643.08 1412.43 1671.08C1421.23 1693.48 1443.09 1727.08 1452.93 1741.08C1458.93 1710.74 1477.53 1641.78 1503.93 1608.58C1536.93 1567.08 1519.43 1549.08 1519.43 1536.58C1519.43 1524.08 1601.43 1634.08 1581.43 1697.58C1561.43 1761.08 1499.93 1810.58 1482.43 1781.58M1397.93 1592.08C1412.93 1565.24 1439.03 1506.48 1423.43 1486.08M1482.43 1781.58C1504.93 1760.91 1549.93 1705.58 1549.93 1649.58M734.927 1546.58C768.927 1550.58 866.427 1542.58 884.927 1523.08C903.427 1503.58 900.427 1464.58 884.927 1456.08C869.427 1447.58 787.927 1427.58 739.427 1456.08M734.927 1546.58C731.593 1544.91 723.627 1540.38 718.427 1535.58C711.927 1529.58 690.927 1484.58 739.427 1456.08M739.427 1456.08C764.76 1445.91 828.855 1435.86 832.927 1486.08C837.427 1541.58 770.427 1522.58 765.927 1517.08C760.593 1507.08 754.827 1482.98 774.427 1466.58M349.927 1482.08C359.427 1487.08 374.427 1519.58 354.427 1545.58C339.927 1548.58 297.927 1565.58 290.427 1511.58C293.427 1506.08 289.927 1479.58 349.927 1482.08ZM224.927 939.577C160.427 938.077 127.427 1034.58 108.427 1029.58C89.4266 1024.58 205.927 1076.5 247.427 1062.58C288.927 1048.66 304.427 992.577 294.927 968.577C287.327 949.377 277.093 956.91 272.927 963.077C245.927 990.077 185.527 1038.68 159.927 1017.08M224.927 939.577C206.927 928.91 169.827 905.077 165.427 895.077C159.927 882.577 148.927 806.077 95.9266 793.577C78.9266 790.077 19.9266 818.077 5.9266 809.577C-8.0734 801.077 15.9266 909.077 68.9266 916.077C121.927 923.077 159.927 913.664 159.927 895.077C159.927 880.208 150.26 862.215 145.427 855.077C103.76 866.91 19.9268 878.877 17.9268 832.077" stroke="black" stroke-width="4"/>
</svg>
