<svg width="1372" height="1409" viewBox="0 0 1372 1409" fill="none" xmlns="http://www.w3.org/2000/svg">
<rect width="1372" height="1409" fill="white"/>
<path d="M547.5 549.5C553.333 548.333 567 546.7 575 549.5C583 552.3 589.667 554.333 592 555C596.5 553.167 606.8 549.5 612 549.5C618.5 549.5 638.5 556 660 558.5C677.2 560.5 690.968 557.667 695.701 556M695.701 556C692.919 555.196 689.66 554.098 686 553C676 550 634.5 534.5 622 528.5C612 523.7 604.167 526.5 601.5 528.5C597.5 531.833 587.8 536.5 581 528.5C574.2 520.5 562.5 521.5 557.5 523C547.629 526.833 532.61 533.3 527.5 536.5C522.39 539.7 514 541 510.5 539.5C512.1 551.1 534.5 578.5 563.5 594C571 598.009 617.5 597 627 594C637.013 590.838 708 553 705.5 556C703.915 557.902 700.521 557.392 695.701 556ZM695.701 556C689.475 554.761 646 567.5 638 567.5C630 567.5 608 567.5 595 570C584.6 572 569.667 566.5 563.5 563.5" stroke="black" stroke-width="4"/>
</svg>
