<svg width="1372" height="1409" viewBox="0 0 1372 1409" fill="none" xmlns="http://www.w3.org/2000/svg">
<rect width="1372" height="1409" fill="white"/>
<path d="M592 369.636C588 389.5 573 412.5 569 422C567.5 426.5 547.5 440.5 547.5 451C547.5 457.5 541 466 571 473.5C576 471 565 465 565 463.5L559.5 454C559.333 451.333 565.4 450.8 569 454C573.5 458 581 474.5 597.5 474M644 440C646 444.5 654.5 446 655.5 451C656.5 456 658 463.5 651.5 472C646.3 478.8 631.5 475 624.5 474C626.667 474.333 631.3 474.4 632.5 472C634 469 634 469.5 630.5 466.5C627 463.5 625.5 463.5 622 463.5C618.5 463.5 616 460.5 614 463.5" stroke="black" stroke-width="4"/>
</svg>
